<svg width="320" height="93" viewBox="0 0 320 93" fill="none" xmlns="http://www.w3.org/2000/svg">
<rect width="320" height="93" fill="white"/>
<path d="M70.64 60V40.2H63.152V34.8H84.428V40.2H76.76V60H70.64ZM93.5599 60.36C91.5679 60.36 89.7919 59.928 88.2319 59.064C86.6959 58.2 85.4719 57.024 84.5599 55.536C83.6719 54.048 83.2279 52.344 83.2279 50.424C83.2279 48.504 83.6719 46.8 84.5599 45.312C85.4719 43.824 86.6959 42.648 88.2319 41.784C89.7919 40.92 91.5679 40.488 93.5599 40.488C95.5519 40.488 97.3159 40.92 98.8519 41.784C100.412 42.648 101.636 43.824 102.524 45.312C103.412 46.8 103.856 48.504 103.856 50.424C103.856 52.344 103.412 54.048 102.524 55.536C101.636 57.024 100.412 58.2 98.8519 59.064C97.3159 59.928 95.5519 60.36 93.5599 60.36ZM93.5599 55.392C94.4239 55.392 95.1919 55.176 95.8639 54.744C96.5359 54.312 97.0639 53.724 97.4479 52.98C97.8319 52.236 98.0119 51.384 97.9879 50.424C98.0119 49.464 97.8319 48.612 97.4479 47.868C97.0639 47.1 96.5359 46.5 95.8639 46.068C95.1919 45.636 94.4239 45.42 93.5599 45.42C92.6959 45.42 91.9159 45.636 91.2199 46.068C90.5479 46.5 90.0199 47.1 89.6359 47.868C89.2519 48.612 89.0719 49.464 89.0959 50.424C89.0719 51.384 89.2519 52.236 89.6359 52.98C90.0199 53.724 90.5479 54.312 91.2199 54.744C91.9159 55.176 92.6959 55.392 93.5599 55.392ZM106.902 52.296V47.004H119.358V52.296H106.902ZM124.371 60V34.8H134.919C136.767 34.8 138.459 35.112 139.995 35.736C141.531 36.336 142.851 37.2 143.955 38.328C145.083 39.456 145.947 40.788 146.547 42.324C147.147 43.86 147.447 45.552 147.447 47.4C147.447 49.248 147.147 50.952 146.547 52.512C145.947 54.048 145.083 55.38 143.955 56.508C142.851 57.612 141.531 58.476 139.995 59.1C138.459 59.7 136.767 60 134.919 60H124.371ZM130.491 55.824L129.663 54.6H134.739C135.747 54.6 136.647 54.432 137.439 54.096C138.231 53.736 138.903 53.244 139.455 52.62C140.031 51.996 140.475 51.24 140.787 50.352C141.099 49.464 141.255 48.48 141.255 47.4C141.255 46.32 141.099 45.336 140.787 44.448C140.475 43.56 140.031 42.804 139.455 42.18C138.903 41.556 138.231 41.076 137.439 40.74C136.647 40.38 135.747 40.2 134.739 40.2H129.555L130.491 39.048V55.824ZM160.568 60.36C158.576 60.36 156.8 59.928 155.24 59.064C153.704 58.2 152.48 57.024 151.568 55.536C150.68 54.048 150.236 52.344 150.236 50.424C150.236 48.504 150.68 46.8 151.568 45.312C152.48 43.824 153.704 42.648 155.24 41.784C156.8 40.92 158.576 40.488 160.568 40.488C162.56 40.488 164.324 40.92 165.86 41.784C167.42 42.648 168.644 43.824 169.532 45.312C170.42 46.8 170.864 48.504 170.864 50.424C170.864 52.344 170.42 54.048 169.532 55.536C168.644 57.024 167.42 58.2 165.86 59.064C164.324 59.928 162.56 60.36 160.568 60.36ZM160.568 55.392C161.432 55.392 162.2 55.176 162.872 54.744C163.544 54.312 164.072 53.724 164.456 52.98C164.84 52.236 165.02 51.384 164.996 50.424C165.02 49.464 164.84 48.612 164.456 47.868C164.072 47.1 163.544 46.5 162.872 46.068C162.2 45.636 161.432 45.42 160.568 45.42C159.704 45.42 158.924 45.636 158.228 46.068C157.556 46.5 157.028 47.1 156.644 47.868C156.26 48.612 156.08 49.464 156.104 50.424C156.08 51.384 156.26 52.236 156.644 52.98C157.028 53.724 157.556 54.312 158.228 54.744C158.924 55.176 159.704 55.392 160.568 55.392ZM183.569 60L193.541 34.8H198.725L208.625 60H202.433L197.681 47.22C197.489 46.716 197.297 46.176 197.105 45.6C196.913 45.024 196.721 44.436 196.529 43.836C196.337 43.212 196.145 42.612 195.953 42.036C195.785 41.436 195.641 40.884 195.521 40.38L196.601 40.344C196.457 40.944 196.289 41.532 196.097 42.108C195.929 42.684 195.749 43.26 195.557 43.836C195.389 44.388 195.197 44.952 194.981 45.528C194.765 46.08 194.561 46.656 194.369 47.256L189.617 60H183.569ZM188.321 55.176L190.229 50.568H201.821L203.693 55.176H188.321ZM211.158 67.92V40.884H216.63L216.846 45.168L215.766 44.844C215.934 44.052 216.342 43.332 216.99 42.684C217.638 42.036 218.454 41.52 219.438 41.136C220.446 40.728 221.502 40.524 222.606 40.524C224.238 40.524 225.69 40.956 226.962 41.82C228.234 42.66 229.23 43.824 229.95 45.312C230.694 46.776 231.066 48.48 231.066 50.424C231.066 52.344 230.694 54.048 229.95 55.536C229.23 57.024 228.222 58.2 226.926 59.064C225.654 59.904 224.19 60.324 222.534 60.324C221.454 60.324 220.422 60.12 219.438 59.712C218.454 59.304 217.626 58.752 216.954 58.056C216.282 57.36 215.838 56.604 215.622 55.788L216.954 55.284V67.92H211.158ZM221.13 55.464C221.994 55.464 222.75 55.26 223.398 54.852C224.046 54.42 224.55 53.832 224.91 53.088C225.27 52.344 225.45 51.456 225.45 50.424C225.45 49.416 225.27 48.54 224.91 47.796C224.55 47.028 224.046 46.44 223.398 46.032C222.774 45.6 222.018 45.384 221.13 45.384C220.242 45.384 219.474 45.588 218.826 45.996C218.178 46.404 217.674 46.992 217.314 47.76C216.954 48.528 216.774 49.416 216.774 50.424C216.774 51.456 216.954 52.344 217.314 53.088C217.674 53.832 218.178 54.42 218.826 54.852C219.474 55.26 220.242 55.464 221.13 55.464ZM234.888 67.92V40.884H240.36L240.576 45.168L239.496 44.844C239.664 44.052 240.072 43.332 240.72 42.684C241.368 42.036 242.184 41.52 243.168 41.136C244.176 40.728 245.232 40.524 246.336 40.524C247.968 40.524 249.42 40.956 250.692 41.82C251.964 42.66 252.96 43.824 253.68 45.312C254.424 46.776 254.796 48.48 254.796 50.424C254.796 52.344 254.424 54.048 253.68 55.536C252.96 57.024 251.952 58.2 250.656 59.064C249.384 59.904 247.92 60.324 246.264 60.324C245.184 60.324 244.152 60.12 243.168 59.712C242.184 59.304 241.356 58.752 240.684 58.056C240.012 57.36 239.568 56.604 239.352 55.788L240.684 55.284V67.92H234.888ZM244.86 55.464C245.724 55.464 246.48 55.26 247.128 54.852C247.776 54.42 248.28 53.832 248.64 53.088C249 52.344 249.18 51.456 249.18 50.424C249.18 49.416 249 48.54 248.64 47.796C248.28 47.028 247.776 46.44 247.128 46.032C246.504 45.6 245.748 45.384 244.86 45.384C243.972 45.384 243.204 45.588 242.556 45.996C241.908 46.404 241.404 46.992 241.044 47.76C240.684 48.528 240.504 49.416 240.504 50.424C240.504 51.456 240.684 52.344 241.044 53.088C241.404 53.832 241.908 54.42 242.556 54.852C243.204 55.26 243.972 55.464 244.86 55.464Z" fill="#BA5112"/>
</svg>
